<svg version="1.1" id="Layer_1" xmlns="http://www.w3.org/2000/svg" xmlns:xlink="http://www.w3.org/1999/xlink" x="0px" y="0px"
	 width="100%" viewBox="0 0 100 75" enable-background="new 0 0 100 75" xml:space="preserve">
<path fill="#FBFEFE" opacity="1.000000" stroke="none" 
	d="
M83.000000,1.000000 
	C88.950020,1.000000 94.900040,1.000000 101.000000,1.000000 
	C101.000000,12.353869 101.000000,23.708277 100.697701,35.362465 
	C97.467934,31.763947 94.540466,27.865644 91.540314,23.717575 
	C91.000679,23.248690 90.533722,23.029572 90.065781,22.861877 
	C90.064804,22.913301 90.162987,22.882610 89.993492,22.585070 
	C88.562210,21.808184 87.300423,21.328838 86.037880,20.895561 
	C86.037125,20.941629 86.127228,20.922312 85.985245,20.637730 
	C85.249573,20.160048 84.655891,19.966949 84.049484,19.829203 
	C84.036766,19.884554 84.150215,19.878967 83.912491,19.576311 
	C73.531532,16.085274 63.541653,15.713556 53.906124,20.909031 
	C53.957993,20.920757 53.954803,20.814449 53.642059,20.858078 
	C52.835506,21.233902 52.341705,21.566099 51.892654,21.903866 
	C51.937408,21.909433 51.915997,21.821817 51.687462,21.879860 
	C51.458927,21.937901 51.042114,22.158484 50.714317,22.222965 
	C35.624100,32.147915 36.753349,50.049786 51.238777,57.979546 
	C51.445370,58.089634 51.898987,58.205528 51.913139,58.158562 
	C51.927296,58.111595 51.829723,58.121849 51.985462,58.398857 
	C52.743969,58.853001 53.346737,59.030136 53.952080,59.150162 
	C53.954659,59.093044 53.843155,59.118382 54.057541,59.418358 
	C62.769867,62.871510 71.323776,64.940056 80.394424,61.054207 
	C80.603951,61.052856 81.012314,60.958767 81.353378,61.031494 
	C82.511650,60.772530 83.328865,60.440830 84.093346,60.114342 
	C84.040611,60.119556 84.079727,60.218056 84.443268,60.176849 
	C87.567886,58.480129 90.328964,56.824612 93.353554,55.055195 
	C94.093681,54.359371 94.570297,53.777447 95.292816,53.068325 
	C95.733673,52.636059 95.928627,52.330990 96.081116,52.032764 
	C96.038658,52.039608 96.068085,52.120438 96.345093,51.968678 
	C96.783218,51.216576 96.944344,50.616234 97.409103,49.863487 
	C98.808487,47.807384 99.904243,45.903694 101.000000,44.000000 
	C101.000000,54.600498 101.000000,65.200996 101.000000,76.000000 
	C88.313126,76.000000 75.625221,76.000000 62.468685,75.743652 
	C62.002312,75.316422 62.004574,75.145538 62.328186,75.054596 
	C63.463463,74.901070 64.277390,74.667610 65.360306,74.282539 
	C65.809052,73.769302 65.988823,73.407692 66.104248,73.053070 
	C66.039909,73.060059 66.073891,73.184967 66.341286,73.095520 
	C66.797752,72.691856 66.986824,72.377655 67.114395,72.059128 
	C67.052902,72.054817 67.067467,72.177254 67.333572,72.086411 
	C67.791557,71.684898 67.983444,71.374237 68.127548,71.082802 
	C68.079765,71.102028 68.145103,71.181671 68.461914,71.071754 
	C70.239906,69.832924 71.701088,68.704018 74.062035,66.879944 
	C69.590385,66.879944 66.317818,67.106956 63.091587,66.817482 
	C59.719688,66.514938 56.392368,65.715500 52.709816,64.980835 
	C49.850182,63.118603 47.536686,60.858177 44.764259,59.798851 
	C35.186615,56.139290 31.671858,39.803135 35.167511,31.076180 
	C38.632145,22.426670 46.160381,19.398453 53.383385,15.102066 
	C54.555241,14.728123 55.370335,14.392115 56.393177,14.057144 
	C56.600925,14.058181 57.007332,13.971748 57.435642,14.034800 
	C67.133698,14.097852 76.403435,14.097852 85.216347,14.097852 
	C84.529747,10.040300 83.764877,5.520150 83.000000,1.000000 
z"/>
<path fill="#22E2BC" opacity="1.000000" stroke="none" 
	d="
M57.007332,13.971749 
	C57.007332,13.971748 56.600925,14.058181 56.029099,14.038214 
	C54.647053,14.392165 53.836838,14.766085 53.026623,15.140003 
	C46.160381,19.398453 38.632145,22.426670 35.167511,31.076180 
	C31.671858,39.803135 35.186615,56.139290 44.764259,59.798851 
	C47.536686,60.858177 49.850182,63.118603 52.942665,65.254196 
	C56.622681,66.455940 59.804653,67.029594 62.819874,68.081322 
	C64.723793,68.745407 66.378571,70.123718 68.145103,71.181671 
	C68.145103,71.181671 68.079765,71.102028 67.863159,71.177071 
	C67.453522,71.560493 67.260498,71.868874 67.067467,72.177254 
	C67.067467,72.177254 67.052902,72.054817 66.849625,72.154167 
	C66.455528,72.563995 66.264709,72.874481 66.073891,73.184967 
	C66.073891,73.184967 66.039909,73.060059 65.823410,73.191223 
	C65.435051,73.692970 65.263184,74.063560 65.091316,74.434158 
	C64.277390,74.667610 63.463463,74.901070 62.166916,74.722458 
	C56.129932,71.932549 50.585751,69.530563 45.018543,67.183182 
	C38.563770,64.461563 32.096226,61.769855 25.620680,59.097988 
	C17.420923,55.714699 9.207518,52.364483 1.000000,49.000000 
	C1.000000,49.000000 1.000000,48.500000 1.310983,48.109390 
	C3.749621,45.151180 5.877275,42.583584 8.130768,40.175682 
	C8.354274,40.093723 8.451941,39.852070 8.638821,39.629246 
	C8.728032,39.648075 8.673632,39.822124 8.998262,39.732857 
	C9.531996,39.036774 9.741097,38.429958 10.053246,37.546864 
	C11.027059,36.495647 11.897825,35.720711 13.038151,34.850914 
	C13.526567,34.454655 13.745428,34.153259 13.963404,33.911507 
	C13.962519,33.971153 13.844275,33.955311 14.103745,33.855724 
	C14.560602,33.452221 14.757990,33.148304 14.962562,32.903343 
	C14.969745,32.962296 14.850966,32.962173 15.111494,32.852806 
	C15.565780,32.429794 15.759537,32.116150 16.089947,31.498392 
	C20.910603,27.643656 25.339033,23.669699 30.342863,20.648853 
	C36.693085,16.815182 43.390388,13.486833 50.168625,10.456364 
	C54.641239,8.456709 59.527027,7.387122 64.213005,5.855763 
	C66.006912,5.269523 67.759583,4.557124 70.003662,3.929350 
	C71.970970,3.962126 73.480370,4.106303 74.957848,3.949608 
	C81.624641,3.242554 81.630180,3.210101 82.968513,9.936021 
	C83.147377,10.834923 83.184082,11.762113 83.332153,13.082183 
	C79.791275,12.461788 76.691895,11.310978 73.689285,11.524035 
	C68.098892,11.920713 62.564838,13.111504 57.007332,13.971749 
z"/>
<path fill="#FDFFFE" opacity="1.000000" stroke="none" 
	d="
M12.768593,34.945774 
	C11.897825,35.720711 11.027059,36.495647 9.772186,37.710972 
	C9.149931,38.708282 8.911780,39.265202 8.673632,39.822124 
	C8.673632,39.822124 8.728032,39.648075 8.448654,39.650856 
	C8.169275,39.653641 8.004930,40.015984 8.004930,40.015984 
	C5.877275,42.583584 3.749621,45.151180 1.310983,47.859390 
	C1.000000,32.388809 1.000000,16.777618 1.000000,1.000000 
	C26.353985,1.000000 51.708336,1.000000 77.352295,1.334423 
	C74.938286,2.413303 72.234665,3.157760 69.531044,3.902216 
	C67.759583,4.557124 66.006912,5.269523 64.213005,5.855763 
	C59.527027,7.387122 54.641239,8.456709 50.168625,10.456364 
	C43.390388,13.486833 36.693085,16.815182 30.342863,20.648853 
	C25.339033,23.669699 20.910603,27.643656 15.838602,31.622749 
	C15.250725,32.354870 15.050845,32.658524 14.850965,32.962173 
	C14.850966,32.962173 14.969745,32.962296 14.697607,32.996178 
	C14.231738,33.338482 14.038007,33.646896 13.844275,33.955311 
	C13.844275,33.955311 13.962519,33.971153 13.694082,34.003868 
	C13.206627,34.339645 12.987609,34.642712 12.768593,34.945774 
z"/>
<path fill="#21E2BC" opacity="1.000000" stroke="none" 
	d="
M81.012314,60.958767 
	C81.012314,60.958767 80.603951,61.052856 79.913818,61.032219 
	C70.763504,60.380516 62.303329,59.749447 53.843155,59.118378 
	C53.843155,59.118382 53.954659,59.093044 53.811325,58.849808 
	C53.055237,58.445000 52.442482,58.283424 51.829723,58.121849 
	C51.829723,58.121849 51.927296,58.111595 51.886772,57.965561 
	C51.574894,57.836166 51.303539,57.852810 51.032188,57.869453 
	C36.753349,50.049786 35.624100,32.147915 50.832668,22.366539 
	C51.491207,22.237690 51.703602,22.029753 51.915993,21.821815 
	C51.915997,21.821817 51.937408,21.909433 52.222038,21.916237 
	C52.989380,21.553511 53.472092,21.183981 53.954803,20.814449 
	C53.954803,20.814449 53.957993,20.920757 54.329025,20.942890 
	C61.074783,20.310513 67.437668,19.443729 73.829018,19.087208 
	C77.244064,18.896711 80.708221,19.586475 84.150215,19.878967 
	C84.150215,19.878967 84.036766,19.884554 84.180679,20.130703 
	C84.925468,20.558672 85.526352,20.740492 86.127228,20.922312 
	C86.127228,20.922312 86.037125,20.941629 86.167480,21.235304 
	C87.586227,21.980188 88.874603,22.431400 90.162987,22.882610 
	C90.162987,22.882610 90.064804,22.913301 90.147507,23.116659 
	C90.691147,23.535793 91.152069,23.751570 91.612999,23.967342 
	C94.540466,27.865644 97.467934,31.763947 100.697701,35.831123 
	C101.000000,38.370556 101.000000,40.741116 101.000000,43.555836 
	C99.904243,45.903694 98.808487,47.807384 97.134705,50.023891 
	C96.393806,50.931282 96.230949,51.525860 96.068085,52.120438 
	C96.068085,52.120438 96.038658,52.039608 95.825035,52.147053 
	C95.423248,52.568172 95.235077,52.881847 95.046913,53.195522 
	C94.570297,53.777447 94.093681,54.359371 93.201218,54.786461 
	C92.224525,54.424122 91.663658,54.216614 91.034340,53.561974 
	C91.015968,50.404556 91.066055,47.694275 91.508652,44.994987 
	C93.244232,44.287296 94.587311,43.568611 95.946686,42.902878 
	C95.962997,42.955830 95.853386,42.972149 96.109505,42.846828 
	C96.185707,42.160538 96.005783,41.599567 95.884987,41.047543 
	C95.944115,41.056492 95.903511,41.168983 95.921547,40.846436 
	C95.617317,40.006828 95.295044,39.489769 94.696129,38.688637 
	C91.871620,36.639923 87.702560,40.314854 85.973495,35.485832 
	C85.648445,33.513126 85.545914,31.826406 84.905197,30.377703 
	C83.112541,26.324320 76.143478,24.426430 73.253464,27.108948 
	C72.941933,27.125463 72.769554,27.154013 72.314041,26.943865 
	C67.628700,24.281900 63.762600,25.991207 59.719955,28.211737 
	C59.291645,28.442297 59.111004,28.710634 58.698997,29.052256 
	C58.173534,29.314749 58.010311,29.583456 57.746021,30.014763 
	C57.514080,30.097864 57.203808,30.480236 57.203808,30.480236 
	C57.203808,30.480236 57.384537,30.938265 57.320381,31.331068 
	C51.914227,38.280338 54.724266,49.131001 59.310207,51.398300 
	C64.423874,53.926506 70.455002,54.721260 76.176300,55.792454 
	C77.287743,56.000546 78.810387,54.012394 80.482994,53.012806 
	C81.462280,52.529938 82.101921,52.071560 82.785583,51.665749 
	C82.829605,51.718311 82.693199,51.732292 82.985916,51.709373 
	C83.465630,51.361977 83.652611,51.037498 83.799477,50.681580 
	C83.759361,50.650143 83.740517,50.549961 84.099861,50.715431 
	C87.474388,54.120968 86.894821,57.214939 84.079727,60.218056 
	C84.079727,60.218056 84.040611,60.119556 83.743164,60.082848 
	C82.634583,60.350349 81.823448,60.654560 81.012314,60.958767 
z"/>
<path fill="#FDFFFF" opacity="1.000000" stroke="none" 
	d="
M1.000000,49.468662 
	C9.207518,52.364483 17.420923,55.714699 25.620680,59.097988 
	C32.096226,61.769855 38.563770,64.461563 45.018543,67.183182 
	C50.585751,69.530563 56.129932,71.932549 61.845566,74.642517 
	C62.004574,75.145538 62.002312,75.316422 62.000027,75.743652 
	C41.768291,76.000000 21.536581,76.000000 1.000000,76.000000 
	C1.000000,67.314819 1.000000,58.626072 1.000000,49.468662 
z"/>
<path fill="#0CDDB0" opacity="1.000000" stroke="none" 
	d="
M70.003662,3.929351 
	C72.234665,3.157760 74.938286,2.413303 77.820953,1.334423 
	C79.388893,1.000000 80.777779,1.000000 82.583336,1.000000 
	C83.764877,5.520150 84.529747,10.040300 85.216347,14.097852 
	C76.403435,14.097852 67.133698,14.097852 57.435642,14.034801 
	C62.564838,13.111504 68.098892,11.920713 73.689285,11.524035 
	C76.691895,11.310978 79.791275,12.461788 83.332153,13.082183 
	C83.184082,11.762113 83.147377,10.834923 82.968513,9.936021 
	C81.630180,3.210101 81.624641,3.242554 74.957848,3.949608 
	C73.480370,4.106303 71.970970,3.962126 70.003662,3.929351 
z"/>
<path fill="#10DEB3" opacity="1.000000" stroke="none" 
	d="
M91.102798,54.009109 
	C91.663658,54.216614 92.224525,54.424122 92.937714,54.900360 
	C90.328964,56.824612 87.567886,58.480129 84.443268,60.176849 
	C86.894821,57.214939 87.474388,54.120968 84.239815,50.401295 
	C84.777138,47.666725 85.533859,45.411762 86.290573,43.156799 
	C86.695442,43.055580 87.100319,42.954357 87.505188,42.853138 
	C87.773590,47.160038 88.041985,51.466942 88.398315,57.184849 
	C89.795403,55.544323 90.449097,54.776714 91.102798,54.009109 
z"/>
<path fill="#0CDDB0" opacity="1.000000" stroke="none" 
	d="
M83.912491,19.576311 
	C80.708221,19.586475 77.244064,18.896711 73.829018,19.087208 
	C67.437668,19.443729 61.074783,20.310513 54.277157,20.931164 
	C63.541653,15.713556 73.531532,16.085274 83.912491,19.576311 
z"/>
<path fill="#0BDDB0" opacity="1.000000" stroke="none" 
	d="
M54.057541,59.418358 
	C62.303329,59.749447 70.763504,60.380516 79.704285,61.033573 
	C71.323776,64.940056 62.769867,62.871510 54.057541,59.418358 
z"/>
<path fill="#0EDDB0" opacity="1.000000" stroke="none" 
	d="
M68.461914,71.071754 
	C66.378571,70.123718 64.723793,68.745407 62.819874,68.081322 
	C59.804653,67.029594 56.622681,66.455940 53.278416,65.406639 
	C56.392368,65.715500 59.719688,66.514938 63.091587,66.817482 
	C66.317818,67.106956 69.590385,66.879944 74.062035,66.879944 
	C71.701088,68.704018 70.239906,69.832924 68.461914,71.071754 
z"/>
<path fill="#0CDDB0" opacity="1.000000" stroke="none" 
	d="
M89.993492,22.585070 
	C88.874603,22.431400 87.586227,21.980188 86.168243,21.189236 
	C87.300423,21.328838 88.562210,21.808184 89.993492,22.585070 
z"/>
<path fill="#0CDDB0" opacity="1.000000" stroke="none" 
	d="
M53.383385,15.102067 
	C53.836838,14.766085 54.647053,14.392165 55.821350,14.037177 
	C55.370335,14.392115 54.555241,14.728123 53.383385,15.102067 
z"/>
<path fill="#0BDDB0" opacity="1.000000" stroke="none" 
	d="
M81.353378,61.031494 
	C81.823448,60.654560 82.634583,60.350349 83.795898,60.077637 
	C83.328865,60.440830 82.511650,60.772530 81.353378,61.031494 
z"/>
<path fill="#04DCAF" opacity="1.000000" stroke="none" 
	d="
M96.345093,51.968678 
	C96.230949,51.525860 96.393806,50.931282 96.831070,50.176300 
	C96.944344,50.616234 96.783218,51.216576 96.345093,51.968678 
z"/>
<path fill="#0CDDB0" opacity="1.000000" stroke="none" 
	d="
M85.985245,20.637730 
	C85.526352,20.740492 84.925468,20.558672 84.193405,20.075352 
	C84.655891,19.966949 85.249573,20.160048 85.985245,20.637730 
z"/>
<path fill="#0BDDB0" opacity="1.000000" stroke="none" 
	d="
M51.985462,58.398857 
	C52.442482,58.283424 53.055237,58.445000 53.808750,58.906921 
	C53.346737,59.030136 52.743969,58.853001 51.985462,58.398857 
z"/>
<path fill="#0CDDB0" opacity="1.000000" stroke="none" 
	d="
M53.642059,20.858078 
	C53.472092,21.183981 52.989380,21.553511 52.177284,21.910667 
	C52.341705,21.566099 52.835506,21.233902 53.642059,20.858078 
z"/>
<path fill="#0CDDB0" opacity="1.000000" stroke="none" 
	d="
M91.540314,23.717575 
	C91.152069,23.751570 90.691147,23.535793 90.148491,23.065235 
	C90.533722,23.029572 91.000679,23.248690 91.540314,23.717575 
z"/>
<path fill="#0EDDB0" opacity="1.000000" stroke="none" 
	d="
M65.360306,74.282532 
	C65.263184,74.063560 65.435051,73.692970 65.887756,73.184235 
	C65.988823,73.407692 65.809052,73.769302 65.360306,74.282532 
z"/>
<path fill="#0BDDB0" opacity="1.000000" stroke="none" 
	d="
M51.238777,57.979546 
	C51.303539,57.852810 51.574894,57.836166 51.872616,58.012527 
	C51.898987,58.205528 51.445370,58.089634 51.238777,57.979546 
z"/>
<path fill="#0EDDB0" opacity="1.000000" stroke="none" 
	d="
M67.333572,72.086411 
	C67.260498,71.868874 67.453522,71.560493 67.910942,71.157845 
	C67.983444,71.374237 67.791557,71.684898 67.333572,72.086411 
z"/>
<path fill="#0EDDB0" opacity="1.000000" stroke="none" 
	d="
M66.341286,73.095520 
	C66.264709,72.874481 66.455528,72.563995 66.911125,72.158478 
	C66.986824,72.377655 66.797752,72.691856 66.341286,73.095520 
z"/>
<path fill="#04DCAF" opacity="1.000000" stroke="none" 
	d="
M95.292816,53.068325 
	C95.235077,52.881847 95.423248,52.568172 95.867493,52.140209 
	C95.928627,52.330990 95.733673,52.636059 95.292816,53.068325 
z"/>
<path fill="#0CDDB0" opacity="1.000000" stroke="none" 
	d="
M51.687462,21.879858 
	C51.703602,22.029753 51.491207,22.237690 51.160461,22.302055 
	C51.042114,22.158484 51.458927,21.937901 51.687462,21.879858 
z"/>
<path fill="#04DCAE" opacity="1.000000" stroke="none" 
	d="
M8.998262,39.732857 
	C8.911780,39.265202 9.149931,38.708282 9.669140,37.987251 
	C9.741097,38.429958 9.531996,39.036774 8.998262,39.732857 
z"/>
<path fill="#04DCAE" opacity="1.000000" stroke="none" 
	d="
M8.130768,40.175682 
	C8.004930,40.015984 8.169275,39.653641 8.359442,39.632027 
	C8.451941,39.852070 8.354274,40.093723 8.130768,40.175682 
z"/>
<path fill="#04DCAE" opacity="1.000000" stroke="none" 
	d="
M13.038150,34.850914 
	C12.987609,34.642712 13.206627,34.339645 13.694967,33.944221 
	C13.745428,34.153259 13.526567,34.454655 13.038150,34.850914 
z"/>
<path fill="#04DCAE" opacity="1.000000" stroke="none" 
	d="
M14.103745,33.855724 
	C14.038007,33.646896 14.231738,33.338482 14.690424,32.937225 
	C14.757990,33.148304 14.560602,33.452221 14.103745,33.855724 
z"/>
<path fill="#04DCAE" opacity="1.000000" stroke="none" 
	d="
M15.111494,32.852806 
	C15.050845,32.658524 15.250725,32.354870 15.701948,31.926865 
	C15.759537,32.116150 15.565780,32.429794 15.111494,32.852806 
z"/>
<path fill="#FEFFFF" opacity="1.000000" stroke="none" 
	d="
M91.034340,53.561974 
	C90.449097,54.776714 89.795403,55.544323 88.398315,57.184849 
	C88.041985,51.466942 87.773590,47.160038 87.505188,42.853138 
	C87.100319,42.954357 86.695442,43.055580 86.290573,43.156799 
	C85.533859,45.411762 84.777138,47.666725 83.880470,50.235825 
	C83.740517,50.549961 83.759361,50.650143 83.514130,50.738789 
	C83.076996,51.129055 82.885094,51.430672 82.693192,51.732292 
	C82.693199,51.732292 82.829605,51.718311 82.477997,51.679199 
	C81.465370,52.105824 80.804367,52.571560 80.143356,53.037296 
	C78.810387,54.012394 77.287743,56.000546 76.176300,55.792454 
	C70.455002,54.721260 64.423874,53.926506 59.310207,51.398300 
	C54.724266,49.131001 51.914227,38.280338 57.469578,31.196785 
	C57.852825,30.452291 57.951168,30.206280 57.977962,29.931660 
	C58.010311,29.583456 58.173534,29.314749 58.908623,28.988949 
	C59.621906,28.719370 59.827911,28.518423 59.967625,28.249512 
	C63.762600,25.991207 67.628700,24.281900 72.089325,27.267151 
	C71.765709,28.460012 71.380653,29.072632 70.762764,29.801750 
	C69.687241,30.334824 68.844566,30.751400 67.635300,31.095863 
	C66.235001,33.015965 65.201294,35.008175 63.999619,37.328594 
	C63.929123,39.437824 64.026596,41.218842 64.029785,43.377861 
	C64.061073,44.514771 64.186638,45.273678 64.406052,46.361389 
	C67.009285,50.512901 70.465546,50.639240 74.551620,49.439350 
	C74.551620,47.301506 74.551620,45.396866 74.551620,43.257275 
	C72.904037,43.138939 71.463173,43.035454 70.018463,42.628845 
	C70.020477,41.921604 70.026314,41.517490 70.496803,41.067959 
	C79.275475,41.071358 87.589493,41.120171 95.903511,41.168983 
	C95.903511,41.168983 95.944115,41.056492 95.934074,41.368195 
	C95.900482,42.110649 95.876938,42.541401 95.853386,42.972149 
	C95.853386,42.972149 95.962997,42.955830 95.552147,42.981579 
	C93.799576,43.666214 92.457855,44.325104 91.116142,44.983994 
	C91.066055,47.694275 91.015968,50.404556 91.034340,53.561974 
M77.239746,44.178917 
	C77.410255,44.122318 77.580765,44.065716 77.751282,44.009121 
	C77.579727,43.954121 77.408173,43.899117 77.239746,44.178917 
z"/>
<path fill="#FEFFFF" opacity="1.000000" stroke="none" 
	d="
M73.389610,27.102726 
	C76.143478,24.426430 83.112541,26.324320 84.905197,30.377703 
	C85.545914,31.826406 85.648445,33.513126 85.544151,35.532139 
	C83.077644,35.936184 81.063614,35.899292 78.904701,35.560097 
	C78.526886,34.436211 78.293953,33.614632 77.993912,32.491417 
	C77.279144,31.795113 76.631470,31.400440 75.649246,31.000053 
	C74.878746,30.916063 74.442795,30.837788 73.999680,30.299143 
	C73.791542,28.926758 73.590576,28.014742 73.389610,27.102726 
z"/>
<path fill="#04DCAF" opacity="1.000000" stroke="none" 
	d="
M95.921547,40.846436 
	C87.589493,41.120171 79.275475,41.071358 70.505234,40.752838 
	C70.372849,39.980053 70.696693,39.476982 71.487839,38.980759 
	C79.627678,38.982639 87.300224,38.977676 94.972771,38.972710 
	C95.295044,39.489769 95.617317,40.006828 95.921547,40.846436 
z"/>
<path fill="#2CE3C0" opacity="1.000000" stroke="none" 
	d="
M94.696129,38.688637 
	C87.300224,38.977676 79.627678,38.982639 71.760666,38.699181 
	C74.060654,37.561310 76.555122,36.711857 79.049583,35.862404 
	C81.063614,35.899292 83.077644,35.936184 85.521027,35.926765 
	C87.702560,40.314854 91.871620,36.639923 94.696129,38.688637 
z"/>
<path fill="#04DCAF" opacity="1.000000" stroke="none" 
	d="
M91.508652,44.994987 
	C92.457855,44.325104 93.799576,43.666214 95.535843,42.928627 
	C94.587311,43.568611 93.244232,44.287296 91.508652,44.994987 
z"/>
<path fill="#F8FEFD" opacity="1.000000" stroke="none" 
	d="
M73.253464,27.108948 
	C73.590576,28.014742 73.791542,28.926758 73.671082,30.321085 
	C72.564972,30.430681 71.780289,30.057966 70.995605,29.685251 
	C71.380653,29.072632 71.765709,28.460012 72.375481,27.524105 
	C72.769554,27.154013 72.941933,27.125463 73.253464,27.108948 
z"/>
<path fill="#10DEB3" opacity="1.000000" stroke="none" 
	d="
M80.482994,53.012806 
	C80.804367,52.571560 81.465370,52.105824 82.433975,51.626633 
	C82.101921,52.071560 81.462280,52.529938 80.482994,53.012806 
z"/>
<path fill="#04DCAF" opacity="1.000000" stroke="none" 
	d="
M96.109505,42.846828 
	C95.876938,42.541401 95.900482,42.110649 95.874947,41.359245 
	C96.005783,41.599567 96.185707,42.160538 96.109505,42.846828 
z"/>
<path fill="#10DEB3" opacity="1.000000" stroke="none" 
	d="
M82.985916,51.709370 
	C82.885094,51.430672 83.076996,51.129055 83.554245,50.770226 
	C83.652611,51.037498 83.465630,51.361977 82.985916,51.709370 
z"/>
<path fill="#F8FEFD" opacity="1.000000" stroke="none" 
	d="
M57.746021,30.014763 
	C57.951168,30.206280 57.852825,30.452291 57.533737,30.803982 
	C57.384537,30.938265 57.203808,30.480236 57.203808,30.480236 
	C57.203808,30.480236 57.514080,30.097864 57.746021,30.014763 
z"/>
<path fill="#F8FEFD" opacity="1.000000" stroke="none" 
	d="
M59.719955,28.211737 
	C59.827911,28.518423 59.621906,28.719370 59.139988,28.915661 
	C59.111004,28.710634 59.291645,28.442297 59.719955,28.211737 
z"/>
<path fill="#21E2BC" opacity="1.000000" stroke="none" 
	d="
M70.762764,29.801750 
	C71.780289,30.057966 72.564972,30.430681 73.678253,30.781454 
	C74.442795,30.837788 74.878746,30.916063 75.700607,31.328434 
	C76.744682,32.039371 77.402847,32.416214 78.061012,32.793053 
	C78.293953,33.614632 78.526886,34.436211 78.904701,35.560097 
	C76.555122,36.711857 74.060654,37.561310 71.293365,38.692337 
	C70.696693,39.476982 70.372849,39.980053 70.040573,40.798248 
	C70.026314,41.517490 70.020477,41.921604 70.013733,43.019722 
	C69.974503,46.764320 69.015434,48.188580 65.997086,45.640907 
	C65.369385,44.531590 64.746727,43.765728 64.124069,42.999863 
	C64.026596,41.218842 63.929123,39.437824 64.325310,37.263912 
	C65.879944,34.970005 66.940910,33.068989 68.001884,31.167976 
	C68.844566,30.751400 69.687241,30.334824 70.762764,29.801750 
z"/>
<path fill="#11DDB1" opacity="1.000000" stroke="none" 
	d="
M66.002129,45.984360 
	C69.015434,48.188580 69.974503,46.764320 70.017570,43.322845 
	C71.463173,43.035454 72.904037,43.138939 74.551620,43.257275 
	C74.551620,45.396866 74.551620,47.301506 74.551620,49.439350 
	C70.465546,50.639240 67.009285,50.512901 64.687759,46.356522 
	C65.251114,46.010021 65.626617,45.997192 66.002129,45.984360 
z"/>
<path fill="#24E2BD" opacity="1.000000" stroke="none" 
	d="
M67.635300,31.095863 
	C66.940910,33.068989 65.879944,34.970005 64.493279,36.935703 
	C65.201294,35.008175 66.235001,33.015965 67.635300,31.095863 
z"/>
<path fill="#24E2BD" opacity="1.000000" stroke="none" 
	d="
M65.997086,45.640907 
	C65.626617,45.997192 65.251114,46.010021 64.593903,46.027721 
	C64.186638,45.273678 64.061073,44.514771 64.029785,43.377861 
	C64.746727,43.765728 65.369385,44.531590 65.997086,45.640907 
z"/>
<path fill="#F8FEFD" opacity="1.000000" stroke="none" 
	d="
M77.238182,44.011517 
	C77.408173,43.899117 77.579727,43.954121 77.751282,44.009117 
	C77.580765,44.065716 77.410255,44.122318 77.238182,44.011517 
z"/>
<path fill="#F8FEFD" opacity="1.000000" stroke="none" 
	d="
M77.993912,32.491417 
	C77.402847,32.416214 76.744682,32.039371 76.035156,31.334148 
	C76.631470,31.400440 77.279144,31.795113 77.993912,32.491417 
z"/>
</svg>